<svg width="800" height="600" xmlns="http://www.w3.org/2000/svg">
  <defs>
    <radialGradient id="bg-gradient" cx="50%" cy="50%" r="70%" fx="50%" fy="50%">
      <stop offset="0%" stop-color="#0A1929" />
      <stop offset="100%" stop-color="#051425" />
    </radialGradient>
    <linearGradient id="title-gradient" x1="0%" y1="0%" x2="100%" y2="100%">
      <stop offset="0%" stop-color="#4EB5FF" />
      <stop offset="100%" stop-color="#0066CC" />
    </linearGradient>
  </defs>
  
  <!-- Background -->
  <rect width="800" height="600" fill="url(#bg-gradient)" />
  
  <!-- Stars -->
  <g fill="#FFFFFF">
    <circle cx="120" cy="60" r="1.5" opacity="0.8" />
    <circle cx="220" cy="150" r="1" opacity="0.6" />
    <circle cx="320" cy="90" r="1.2" opacity="0.7" />
    <circle cx="420" cy="40" r="1" opacity="0.5" />
    <circle cx="520" cy="120" r="1.4" opacity="0.9" />
    <circle cx="620" cy="80" r="1.1" opacity="0.7" />
    <circle cx="720" cy="140" r="1.3" opacity="0.8" />
    <circle cx="150" cy="200" r="1.2" opacity="0.6" />
    <circle cx="250" cy="250" r="1" opacity="0.5" />
    <circle cx="350" cy="180" r="1.4" opacity="0.9" />
    <circle cx="450" cy="230" r="1.1" opacity="0.7" />
    <circle cx="550" cy="210" r="1" opacity="0.6" />
    <circle cx="650" cy="190" r="1.3" opacity="0.8" />
    <circle cx="750" cy="220" r="1.2" opacity="0.7" />
    <circle cx="180" cy="300" r="1.1" opacity="0.6" />
    <circle cx="280" cy="350" r="1.3" opacity="0.8" />
    <circle cx="380" cy="320" r="1" opacity="0.5" />
    <circle cx="480" cy="380" r="1.2" opacity="0.7" />
    <circle cx="580" cy="340" r="1.4" opacity="0.9" />
    <circle cx="680" cy="360" r="1" opacity="0.6" />
    <circle cx="780" cy="330" r="1.1" opacity="0.7" />
    <circle cx="130" cy="450" r="1.3" opacity="0.8" />
    <circle cx="230" cy="420" r="1" opacity="0.5" />
    <circle cx="330" cy="470" r="1.2" opacity="0.7" />
    <circle cx="430" cy="430" r="1.4" opacity="0.9" />
    <circle cx="530" cy="460" r="1.1" opacity="0.6" />
    <circle cx="630" cy="440" r="1" opacity="0.5" />
    <circle cx="730" cy="480" r="1.3" opacity="0.8" />
    <circle cx="160" cy="540" r="1.2" opacity="0.7" />
    <circle cx="260" cy="520" r="1.4" opacity="0.9" />
    <circle cx="360" cy="560" r="1" opacity="0.6" />
    <circle cx="460" cy="530" r="1.1" opacity="0.7" />
    <circle cx="560" cy="550" r="1.3" opacity="0.8" />
    <circle cx="660" cy="510" r="1" opacity="0.5" />
    <circle cx="760" cy="570" r="1.2" opacity="0.7" />
  </g>
  
  <!-- Quantum field visualization -->
  <g transform="translate(400, 250)">
    <circle cx="0" cy="0" r="100" fill="none" stroke="#1E90FF" stroke-width="2" opacity="0.3" />
    <circle cx="0" cy="0" r="70" fill="none" stroke="#1E90FF" stroke-width="2" opacity="0.5" />
    <circle cx="0" cy="0" r="40" fill="none" stroke="#1E90FF" stroke-width="2" opacity="0.7" />
    
    <!-- Orbiting particles -->
    <g>
      <circle cx="90" cy="40" r="6" fill="#4EB5FF" />
      <circle cx="-60" cy="-80" r="4" fill="#4EB5FF" />
      <circle cx="10" cy="95" r="5" fill="#4EB5FF" />
      <circle cx="-85" cy="30" r="3" fill="#4EB5FF" />
      
      <!-- Particle trails -->
      <path d="M90,40 C60,60 30,65 10,95" stroke="#4EB5FF" stroke-width="1" fill="none" opacity="0.5" />
      <path d="M-60,-80 C-40,-60 -30,-20 -85,30" stroke="#4EB5FF" stroke-width="1" fill="none" opacity="0.5" />
    </g>
  </g>
  
  <!-- Title -->
  <text x="400" y="450" font-family="Arial, sans-serif" font-size="40" font-weight="bold" text-anchor="middle" fill="url(#title-gradient)">The Quantum Nexus</text>
  
  <!-- Author -->
  <text x="400" y="490" font-family="Arial, sans-serif" font-size="20" text-anchor="middle" fill="#FFFFFF" opacity="0.9">Elena Voss</text>
</svg> 